<svg xmlns="http://www.w3.org/2000/svg" viewBox="0 0 64 64" width="64" height="64">
  <!-- Dark circle background -->
  <circle cx="32" cy="32" r="32" fill="#0A0A0A"/>
  <!-- Film reel body -->
  <circle cx="32" cy="32" r="20" fill="none" stroke="#E50914" stroke-width="2.5"/>
  <!-- Center hub -->
  <circle cx="32" cy="32" r="5" fill="#E50914"/>
  <!-- Film reel spokes -->
  <circle cx="32" cy="18" r="3.5" fill="none" stroke="#E50914" stroke-width="1.8"/>
  <circle cx="44.1" cy="25" r="3.5" fill="none" stroke="#E50914" stroke-width="1.8"/>
  <circle cx="44.1" cy="39" r="3.5" fill="none" stroke="#E50914" stroke-width="1.8"/>
  <circle cx="32" cy="46" r="3.5" fill="none" stroke="#E50914" stroke-width="1.8"/>
  <circle cx="19.9" cy="39" r="3.5" fill="none" stroke="#E50914" stroke-width="1.8"/>
  <circle cx="19.9" cy="25" r="3.5" fill="none" stroke="#E50914" stroke-width="1.8"/>
  <!-- Spoke lines connecting to center -->
  <line x1="32" y1="27" x2="32" y2="21.5" stroke="#E50914" stroke-width="1.2"/>
  <line x1="36.3" y1="29.5" x2="40.8" y2="26.8" stroke="#E50914" stroke-width="1.2"/>
  <line x1="36.3" y1="34.5" x2="40.8" y2="37.2" stroke="#E50914" stroke-width="1.2"/>
  <line x1="32" y1="37" x2="32" y2="42.5" stroke="#E50914" stroke-width="1.2"/>
  <line x1="27.7" y1="34.5" x2="23.2" y2="37.2" stroke="#E50914" stroke-width="1.2"/>
  <line x1="27.7" y1="29.5" x2="23.2" y2="26.8" stroke="#E50914" stroke-width="1.2"/>
  <!-- Film strip tail -->
  <path d="M52 32 Q56 32 56 28 L56 16 Q56 14 54 14" fill="none" stroke="#E50914" stroke-width="2" stroke-linecap="round"/>
  <!-- Film strip perforations -->
  <rect x="53" y="17" width="2" height="2" rx="0.5" fill="#E50914"/>
  <rect x="53" y="22" width="2" height="2" rx="0.5" fill="#E50914"/>
  <rect x="53" y="27" width="2" height="2" rx="0.5" fill="#E50914"/>
</svg>
