<svg xmlns="http://www.w3.org/2000/svg" viewBox="0 0 512 512" width="512" height="512">
  <!-- Dark circle background -->
  <circle cx="256" cy="256" r="256" fill="#0A0A0A"/>
  <!-- Outer gold ring / film reel -->
  <circle cx="256" cy="256" r="160" fill="none" stroke="#E50914" stroke-width="16"/>
  <!-- Center hub -->
  <circle cx="256" cy="256" r="40" fill="#E50914"/>
  <!-- Film reel spoke holes -->
  <circle cx="256" cy="144" r="28" fill="none" stroke="#E50914" stroke-width="12"/>
  <circle cx="352.9" cy="200" r="28" fill="none" stroke="#E50914" stroke-width="12"/>
  <circle cx="352.9" cy="312" r="28" fill="none" stroke="#E50914" stroke-width="12"/>
  <circle cx="256" cy="368" r="28" fill="none" stroke="#E50914" stroke-width="12"/>
  <circle cx="159.1" cy="312" r="28" fill="none" stroke="#E50914" stroke-width="12"/>
  <circle cx="159.1" cy="200" r="28" fill="none" stroke="#E50914" stroke-width="12"/>
  <!-- Spoke lines connecting to center -->
  <line x1="256" y1="216" x2="256" y2="172" stroke="#E50914" stroke-width="8"/>
  <line x1="290.6" y1="236" x2="326.4" y2="214.4" stroke="#E50914" stroke-width="8"/>
  <line x1="290.6" y1="276" x2="326.4" y2="297.6" stroke="#E50914" stroke-width="8"/>
  <line x1="256" y1="296" x2="256" y2="340" stroke="#E50914" stroke-width="8"/>
  <line x1="221.4" y1="276" x2="185.6" y2="297.6" stroke="#E50914" stroke-width="8"/>
  <line x1="221.4" y1="236" x2="185.6" y2="214.4" stroke="#E50914" stroke-width="8"/>
  <!-- Film strip tail -->
  <path d="M416 256 Q448 256 448 224 L448 128 Q448 112 432 112" fill="none" stroke="#E50914" stroke-width="14" stroke-linecap="round"/>
  <!-- Film strip perforations -->
  <rect x="434" y="132" width="14" height="14" rx="3" fill="#E50914"/>
  <rect x="434" y="168" width="14" height="14" rx="3" fill="#E50914"/>
  <rect x="434" y="204" width="14" height="14" rx="3" fill="#E50914"/>
</svg>
